<svg width="16" height="16" viewBox="0 0 16 16" fill="none" xmlns="http://www.w3.org/2000/svg">
<path fill-rule="evenodd" clip-rule="evenodd" d="M12.8572 10.6404C12.818 10.4241 12.8444 10.2011 12.9332 9.99999C13.0177 9.80281 13.158 9.63464 13.3369 9.51619C13.5157 9.39774 13.7253 9.33418 13.9398 9.33332H13.9998C14.3535 9.33332 14.6926 9.19285 14.9426 8.9428C15.1927 8.69275 15.3332 8.35361 15.3332 7.99999C15.3332 7.64637 15.1927 7.30723 14.9426 7.05718C14.6926 6.80713 14.3535 6.66666 13.9998 6.66666H13.8865C13.672 6.6658 13.4624 6.60223 13.2835 6.48378C13.1047 6.36533 12.9643 6.19717 12.8798 5.99999V5.94666C12.7911 5.74558 12.7646 5.52253 12.8038 5.30626C12.843 5.09 12.9461 4.89044 13.0998 4.73332L13.1398 4.69332C13.2638 4.56949 13.3622 4.42244 13.4292 4.26058C13.4963 4.09871 13.5309 3.92521 13.5309 3.74999C13.5309 3.57477 13.4963 3.40127 13.4292 3.2394C13.3622 3.07754 13.2638 2.93049 13.1398 2.80666C13.016 2.68269 12.869 2.58434 12.7071 2.51724C12.5452 2.45014 12.3717 2.41561 12.1965 2.41561C12.0213 2.41561 11.8478 2.45014 11.6859 2.51724C11.5241 2.58434 11.377 2.68269 11.2532 2.80666L11.2132 2.84666C11.0561 3.00035 10.8565 3.10345 10.6402 3.14266C10.424 3.18187 10.2009 3.1554 9.99984 3.06666C9.80266 2.98215 9.63449 2.84183 9.51604 2.66297C9.39759 2.48411 9.33403 2.27451 9.33317 2.05999V1.99999C9.33317 1.64637 9.19269 1.30723 8.94265 1.05718C8.6926 0.807132 8.35346 0.666656 7.99984 0.666656C7.64621 0.666656 7.30708 0.807132 7.05703 1.05718C6.80698 1.30723 6.6665 1.64637 6.6665 1.99999V2.11332C6.66565 2.32785 6.60208 2.53744 6.48363 2.7163C6.36518 2.89516 6.19702 3.03548 5.99984 3.11999H5.9465C5.74543 3.20873 5.52237 3.23521 5.30611 3.19599C5.08985 3.15678 4.89029 3.05368 4.73317 2.89999L4.69317 2.85999C4.56934 2.73602 4.42229 2.63768 4.26042 2.57058C4.09856 2.50348 3.92506 2.46894 3.74984 2.46894C3.57462 2.46894 3.40111 2.50348 3.23925 2.57058C3.07739 2.63768 2.93033 2.73602 2.8065 2.85999C2.68254 2.98382 2.58419 3.13087 2.51709 3.29274C2.44999 3.4546 2.41545 3.6281 2.41545 3.80332C2.41545 3.97854 2.44999 4.15205 2.51709 4.31391C2.58419 4.47577 2.68254 4.62283 2.8065 4.74666L2.8465 4.78666C3.0002 4.94378 3.10329 5.14333 3.14251 5.3596C3.18172 5.57586 3.15525 5.79891 3.0665 5.99999C2.99031 6.20715 2.85357 6.38659 2.67404 6.515C2.49451 6.6434 2.2805 6.71483 2.05984 6.71999H1.99984C1.64622 6.71999 1.30708 6.86047 1.05703 7.11051C0.80698 7.36056 0.666504 7.6997 0.666504 8.05332C0.666504 8.40694 0.80698 8.74608 1.05703 8.99613C1.30708 9.24618 1.64622 9.38666 1.99984 9.38666H2.11317C2.32769 9.38751 2.53729 9.45108 2.71615 9.56953C2.89501 9.68798 3.03533 9.85614 3.11984 10.0533C3.20858 10.2544 3.23505 10.4775 3.19584 10.6937C3.15663 10.91 3.05353 11.1095 2.89984 11.2667L2.85984 11.3067C2.73587 11.4305 2.63752 11.5775 2.57042 11.7394C2.50333 11.9013 2.46879 12.0748 2.46879 12.25C2.46879 12.4252 2.50333 12.5987 2.57042 12.7606C2.63752 12.9224 2.73587 13.0695 2.85984 13.1933C2.98367 13.3173 3.13072 13.4156 3.29258 13.4827C3.45445 13.5498 3.62795 13.5844 3.80317 13.5844C3.97839 13.5844 4.15189 13.5498 4.31376 13.4827C4.47562 13.4156 4.62267 13.3173 4.7465 13.1933L4.7865 13.1533C4.94362 12.9996 5.14318 12.8965 5.35944 12.8573C5.57571 12.8181 5.79876 12.8446 5.99984 12.9333C6.20699 13.0095 6.38644 13.1463 6.51484 13.3258C6.64325 13.5053 6.71468 13.7193 6.71984 13.94V14C6.71984 14.3536 6.86031 14.6927 7.11036 14.9428C7.36041 15.1928 7.69955 15.3333 8.05317 15.3333C8.40679 15.3333 8.74593 15.1928 8.99598 14.9428C9.24603 14.6927 9.3865 14.3536 9.3865 14V13.8867C9.38736 13.6721 9.45092 13.4625 9.56938 13.2837C9.68783 13.1048 9.85599 12.9645 10.0532 12.88C10.2542 12.7912 10.4773 12.7648 10.6936 12.804C10.9098 12.8432 11.1094 12.9463 11.2665 13.1L11.3065 13.14C11.4303 13.264 11.5774 13.3623 11.7392 13.4294C11.9011 13.4965 12.0746 13.531 12.2498 13.531C12.4251 13.531 12.5986 13.4965 12.7604 13.4294C12.9223 13.3623 13.0693 13.264 13.1932 13.14C13.3171 13.0162 13.4155 12.8691 13.4826 12.7072C13.5497 12.5454 13.5842 12.3719 13.5842 12.1967C13.5842 12.0214 13.5497 11.8479 13.4826 11.6861C13.4155 11.5242 13.3171 11.3772 13.1932 11.2533L13.1532 11.2133C12.9995 11.0562 12.8964 10.8566 12.8572 10.6404ZM6.99984 7.99999C6.99984 7.44771 7.44755 6.99999 7.99984 6.99999C8.55212 6.99999 8.99984 7.44771 8.99984 7.99999C8.99984 8.55227 8.55212 8.99999 7.99984 8.99999C7.44755 8.99999 6.99984 8.55227 6.99984 7.99999ZM7.99984 4.99999C6.34298 4.99999 4.99984 6.34314 4.99984 7.99999C4.99984 9.65684 6.34298 11 7.99984 11C9.65669 11 10.9998 9.65684 10.9998 7.99999C10.9998 6.34314 9.65669 4.99999 7.99984 4.99999Z" fill="white"/>
</svg>
