<svg width="18" height="18" viewBox="0 0 18 18" fill="none" xmlns="http://www.w3.org/2000/svg">
<path d="M2.63672 12C1.76435 12 1.05469 12.7097 1.05469 13.582C1.05469 14.4544 1.76435 15.1641 2.63672 15.1641C3.50909 15.1641 4.21875 14.4544 4.21875 13.582C4.21875 12.7097 3.50909 12 2.63672 12Z" fill="#333333"/>
<path d="M2.63672 7C1.76435 7 1.05469 7.70966 1.05469 8.58203C1.05469 9.4544 1.76435 10.1641 2.63672 10.1641C3.50909 10.1641 4.21875 9.4544 4.21875 8.58203C4.21875 7.70966 3.50909 7 2.63672 7Z" fill="#333333"/>
<path d="M2.63672 2C1.76435 2 1.05469 2.74482 1.05469 3.61719C1.05469 4.48955 1.76435 5.19922 2.63672 5.19922C3.50909 5.19922 4.21875 4.48955 4.21875 3.61719C4.21875 2.74482 3.50909 2 2.63672 2Z" fill="#333333"/>
<path d="M16.418 12H8.96484C8.09248 12 7.38281 12.7097 7.38281 13.582C7.38281 14.4544 8.09248 15.1641 8.96484 15.1641H16.418C17.2903 15.1641 18 14.4544 18 13.582C18 12.7097 17.2903 12 16.418 12Z" fill="#333333"/>
<path d="M16.418 7H8.96484C8.09248 7 7.38281 7.70966 7.38281 8.58203C7.38281 9.4544 8.09248 10.1641 8.96484 10.1641H16.418C17.2903 10.1641 18 9.4544 18 8.58203C18 7.70966 17.2903 7 16.418 7Z" fill="#333333"/>
<path d="M16.418 2.14453H8.96484C8.09248 2.14453 7.38281 2.8542 7.38281 3.72656C7.38281 4.59893 8.09248 5.30859 8.96484 5.30859H16.418C17.2903 5.30859 18 4.59893 18 3.72656C18 2.8542 17.2903 2.14453 16.418 2.14453Z" fill="#333333"/>
</svg>
