<svg width="18" height="18" viewBox="0 0 18 18" fill="none" xmlns="http://www.w3.org/2000/svg">
<path d="M2.63672 12C1.76435 12 1.05469 12.7097 1.05469 13.582C1.05469 14.4544 1.76435 15.1641 2.63672 15.1641C3.50909 15.1641 4.21875 14.4544 4.21875 13.582C4.21875 12.7097 3.50909 12 2.63672 12Z" fill="#333333"/>
<path d="M2.63672 7C1.76435 7 1.05469 7.70966 1.05469 8.58203C1.05469 9.4544 1.76435 10.1641 2.63672 10.1641C3.50909 10.1641 4.21875 9.4544 4.21875 8.58203C4.21875 7.70966 3.50909 7 2.63672 7Z" fill="#333333"/>
<path d="M2.63672 2C1.76435 2 1.05469 2.74482 1.05469 3.61719C1.05469 4.48955 1.76435 5.19922 2.63672 5.19922C3.50909 5.19922 4.21875 4.48955 4.21875 3.61719C4.21875 2.74482 3.50909 2 2.63672 2Z" fill="#333333"/>
<path d="M8.96484 12.5H16.418C17.0142 12.5 17.5 12.9858 17.5 13.582C17.5 14.1783 17.0142 14.6641 16.418 14.6641H8.96484C8.36862 14.6641 7.88281 14.1783 7.88281 13.582C7.88281 12.9858 8.36862 12.5 8.96484 12.5Z" stroke="#333333"/>
<path d="M8.96484 7.5H16.418C17.0142 7.5 17.5 7.98581 17.5 8.58203C17.5 9.17826 17.0142 9.66406 16.418 9.66406H8.96484C8.36862 9.66406 7.88281 9.17826 7.88281 8.58203C7.88281 7.98581 8.36862 7.5 8.96484 7.5Z" stroke="#333333"/>
<path d="M8.96484 2.64453H16.418C17.0142 2.64453 17.5 3.13034 17.5 3.72656C17.5 4.32279 17.0142 4.80859 16.418 4.80859H8.96484C8.36862 4.80859 7.88281 4.32279 7.88281 3.72656C7.88281 3.13034 8.36862 2.64453 8.96484 2.64453Z" stroke="#333333"/>
</svg>
