<svg width="24" height="24" viewBox="0 0 24 24" fill="none" xmlns="http://www.w3.org/2000/svg">
<path d="M14.9165 6.75C15.0697 6.59679 15.2516 6.47526 15.4518 6.39235C15.652 6.30943 15.8665 6.26675 16.0832 6.26675C16.2998 6.26675 16.5144 6.30943 16.7146 6.39235C16.9147 6.47526 17.0966 6.59679 17.2498 6.75C17.403 6.90321 17.5246 7.0851 17.6075 7.28527C17.6904 7.48545 17.7331 7.7 17.7331 7.91667C17.7331 8.13334 17.6904 8.34789 17.6075 8.54807C17.5246 8.74824 17.403 8.93013 17.2498 9.08334L9.37484 16.9583L6.1665 17.8333L7.0415 14.625L14.9165 6.75Z" stroke="white" stroke-width="2" stroke-linecap="round" stroke-linejoin="round"/>
</svg>
