<svg width="213" height="213" viewBox="0 0 213 213" fill="none" xmlns="http://www.w3.org/2000/svg">
<g clip-path="url(#clip0)">
<path d="M177.282 134.233L177.281 77.8898C177.282 73.5856 175.597 69.5314 172.538 66.4725C169.479 63.4129 165.424 61.7289 161.12 61.7289H64.8378C55.9267 61.7289 48.6769 68.9787 48.6769 77.8898L48.6777 82.8398H25.0469C22.6192 82.8398 20.652 84.807 20.652 87.2347C20.6512 88.4477 21.144 89.5458 21.9395 90.3413C22.7349 91.1367 23.8322 91.6287 25.0461 91.6287L48.6777 91.6279L48.6769 101.666L6.21875 101.668C3.79191 101.667 1.82388 103.635 1.82469 106.062C1.82388 107.275 2.3167 108.373 3.11216 109.169C3.90762 109.964 5.00493 110.456 6.21875 110.456L48.6761 110.455L48.6777 120.494L25.0461 120.495C22.6192 120.494 20.652 122.462 20.652 124.889C20.652 126.103 21.1432 127.201 21.9387 127.997C22.7341 128.792 23.8322 129.283 25.0461 129.283H48.6769L48.6761 134.233C48.6769 138.538 50.3617 142.592 53.4205 145.651C56.4794 148.709 60.5336 150.394 64.8386 150.394L161.12 150.395C170.031 150.395 177.282 143.144 177.282 134.233ZM158.373 70.5178L112.979 100.779L67.5843 70.517L158.373 70.5178ZM161.12 141.605L64.8386 141.606C62.8819 141.606 61.0345 140.835 59.6353 139.436C58.2362 138.037 57.4658 136.19 57.465 134.233L57.4658 106.063C57.4658 106.063 57.465 106.062 57.4658 106.061C57.4658 106.06 57.4658 106.06 57.465 106.059L57.4658 87.2355C57.465 87.2347 57.465 87.2347 57.4658 87.2339C57.465 87.2331 57.4658 87.2322 57.4658 87.2322V77.8906C57.4658 76.7836 57.7126 75.734 58.1512 74.7905L110.542 109.718C112.018 110.702 113.94 110.702 115.416 109.718L167.805 74.7921C168.254 75.7527 168.493 76.8038 168.493 77.8898L168.492 134.233C168.493 138.298 165.186 141.605 161.12 141.605Z" fill="#19A5D3"/>
</g>
<defs>
<clipPath id="clip0">
<rect width="150" height="150" fill="white" transform="translate(106.066) rotate(45)"/>
</clipPath>
</defs>
</svg>
