<svg width="24" height="24" viewBox="0 0 24 24" fill="none" xmlns="http://www.w3.org/2000/svg">
<path d="M11.256 13.756V21.756H3.25598V13.756H11.256ZM9.25598 15.756H5.25598V19.756H9.25598V15.756ZM12.256 2.25604L17.756 11.256H6.75598L12.256 2.25604ZM12.256 6.11604L10.336 9.25604H14.176L12.256 6.11604ZM17.756 13.256C20.256 13.256 22.256 15.256 22.256 17.756C22.256 20.256 20.256 22.256 17.756 22.256C15.256 22.256 13.256 20.256 13.256 17.756C13.256 15.256 15.256 13.256 17.756 13.256ZM17.756 15.256C17.0929 15.256 16.4571 15.5194 15.9882 15.9883C15.5194 16.4571 15.256 17.093 15.256 17.756C15.256 18.4191 15.5194 19.055 15.9882 19.5238C16.4571 19.9927 17.0929 20.256 17.756 20.256C18.419 20.256 19.0549 19.9927 19.5237 19.5238C19.9926 19.055 20.256 18.4191 20.256 17.756C20.256 17.093 19.9926 16.4571 19.5237 15.9883C19.0549 15.5194 18.419 15.256 17.756 15.256Z" fill="black"/>
</svg>
