<svg width="19" height="18" viewBox="0 0 19 18" fill="none" xmlns="http://www.w3.org/2000/svg">
<path d="M13.8684 6C15.111 6 16.1184 4.99264 16.1184 3.75C16.1184 2.50736 15.111 1.5 13.8684 1.5C12.6258 1.5 11.6184 2.50736 11.6184 3.75C11.6184 4.99264 12.6258 6 13.8684 6Z" stroke="#333333" stroke-width="2" stroke-linecap="round" stroke-linejoin="round"/>
<path d="M4.86841 11.25C6.11105 11.25 7.11841 10.2426 7.11841 9C7.11841 7.75736 6.11105 6.75 4.86841 6.75C3.62577 6.75 2.61841 7.75736 2.61841 9C2.61841 10.2426 3.62577 11.25 4.86841 11.25Z" stroke="#333333" stroke-width="2" stroke-linecap="round" stroke-linejoin="round"/>
<path d="M13.8684 16.5C15.111 16.5 16.1184 15.4926 16.1184 14.25C16.1184 13.0074 15.111 12 13.8684 12C12.6258 12 11.6184 13.0074 11.6184 14.25C11.6184 15.4926 12.6258 16.5 13.8684 16.5Z" stroke="#333333" stroke-width="2" stroke-linecap="round" stroke-linejoin="round"/>
<path d="M6.81091 10.1325L11.9334 13.1175" stroke="#333333" stroke-width="2" stroke-linecap="round" stroke-linejoin="round"/>
<path d="M11.9259 4.88251L6.81091 7.86751" stroke="#333333" stroke-width="2" stroke-linecap="round" stroke-linejoin="round"/>
</svg>
